<svg width="35" height="28" viewBox="0 0 35 28" fill="none" xmlns="http://www.w3.org/2000/svg">
<path d="M32.1613 7.94992L30.0053 11.1951C31.045 13.2704 31.5541 15.5714 31.4868 17.892C31.4195 20.2126 30.7779 22.4802 29.6197 24.4917H5.32508C3.81967 21.8781 3.19588 18.8487 3.54618 15.8525C3.89648 12.8563 5.20222 10.0528 7.26984 7.8577C9.33745 5.66254 12.0569 4.19258 15.0249 3.66572C17.993 3.13887 21.0517 3.58317 23.7476 4.93276L26.9904 2.77514C23.6888 0.656497 19.7727 -0.292874 15.8683 0.0788874C11.9639 0.450649 8.29695 2.12206 5.4539 4.82578C2.61086 7.52949 0.75602 11.1093 0.186089 14.9925C-0.383843 18.8758 0.364062 22.8382 2.31017 26.2458C2.61606 26.7761 3.05529 27.2169 3.5842 27.5247C4.11311 27.8324 4.71329 27.9963 5.32508 28H29.6021C30.2199 28.0024 30.8273 27.8415 31.3629 27.5334C31.8985 27.2254 32.3432 26.7812 32.6521 26.2458C34.2671 23.446 35.0777 20.2541 34.9941 17.0224C34.9106 13.7906 33.9363 10.6449 32.1788 7.93238L32.1613 7.94992ZM15.0008 19.9484C15.3264 20.2746 15.7131 20.5333 16.1387 20.7099C16.5642 20.8864 17.0204 20.9773 17.4811 20.9773C17.9418 20.9773 18.398 20.8864 18.8236 20.7099C19.2492 20.5333 19.6358 20.2746 19.9614 19.9484L29.8826 5.05555L15.0008 14.9841C14.6749 15.3099 14.4163 15.6969 14.2399 16.1228C14.0635 16.5487 13.9727 17.0052 13.9727 17.4662C13.9727 17.9273 14.0635 18.3838 14.2399 18.8097C14.4163 19.2356 14.6749 19.6225 15.0008 19.9484V19.9484Z" fill="#38BC55"/>
</svg>
