<svg width="26" height="26" viewBox="0 0 26 26" fill="none" xmlns="http://www.w3.org/2000/svg">
<path fill-rule="evenodd" clip-rule="evenodd" d="M7.70919 0.243748C9.07769 0.180748 9.51402 0.166748 13 0.166748C16.486 0.166748 16.9224 0.181915 18.2897 0.243748C19.657 0.305581 20.5904 0.523748 21.407 0.839915C22.2622 1.16308 23.038 1.66825 23.6797 2.32158C24.333 2.96208 24.837 3.73675 25.159 4.59308C25.4764 5.40975 25.6933 6.34308 25.7563 7.70808C25.8193 9.07891 25.8334 9.51525 25.8334 13.0001C25.8334 16.4861 25.8182 16.9224 25.7563 18.2909C25.6945 19.6559 25.4764 20.5892 25.159 21.4059C24.837 22.2624 24.3322 23.0383 23.6797 23.6797C23.038 24.3331 22.2622 24.8371 21.407 25.1591C20.5904 25.4764 19.657 25.6934 18.292 25.7564C16.9223 25.8194 16.486 25.8334 13 25.8334C9.51402 25.8334 9.07769 25.8182 7.70919 25.7564C6.34419 25.6946 5.41085 25.4764 4.59419 25.1591C3.73776 24.837 2.96181 24.3322 2.32035 23.6797C1.66746 23.0389 1.16222 22.2633 0.839854 21.4071C0.523687 20.5904 0.306687 19.6571 0.243687 18.2921C0.180687 16.9212 0.166687 16.4849 0.166687 13.0001C0.166687 9.51408 0.181854 9.07775 0.243687 7.71041C0.30552 6.34308 0.523687 5.40975 0.839854 4.59308C1.1627 3.73684 1.66833 2.96128 2.32152 2.32041C2.96207 1.66767 3.73724 1.16243 4.59302 0.839915C5.40969 0.523748 6.34302 0.306748 7.70802 0.243748H7.70919ZM18.1859 2.55375C16.8325 2.49191 16.4265 2.47908 13 2.47908C9.57352 2.47908 9.16752 2.49191 7.81419 2.55375C6.56235 2.61091 5.88335 2.81975 5.43069 2.99591C4.83219 3.22925 4.40402 3.50575 3.95485 3.95491C3.52907 4.36914 3.2014 4.87341 2.99585 5.43075C2.81969 5.88341 2.61085 6.56241 2.55369 7.81425C2.49185 9.16758 2.47902 9.57358 2.47902 13.0001C2.47902 16.4266 2.49185 16.8326 2.55369 18.1859C2.61085 19.4377 2.81969 20.1167 2.99585 20.5694C3.20119 21.1259 3.52902 21.6311 3.95485 22.0452C4.36902 22.4711 4.87419 22.7989 5.43069 23.0042C5.88335 23.1804 6.56235 23.3892 7.81419 23.4464C9.16752 23.5082 9.57235 23.5211 13 23.5211C16.4277 23.5211 16.8325 23.5082 18.1859 23.4464C19.4377 23.3892 20.1167 23.1804 20.5694 23.0042C21.1679 22.7709 21.596 22.4944 22.0452 22.0452C22.471 21.6311 22.7989 21.1259 23.0042 20.5694C23.1804 20.1167 23.3892 19.4377 23.4464 18.1859C23.5082 16.8326 23.521 16.4266 23.521 13.0001C23.521 9.57358 23.5082 9.16758 23.4464 7.81425C23.3892 6.56241 23.1804 5.88341 23.0042 5.43075C22.7709 4.83225 22.4944 4.40408 22.0452 3.95491C21.6309 3.52916 21.1267 3.20149 20.5694 2.99591C20.1167 2.81975 19.4377 2.61091 18.1859 2.55375ZM11.3609 16.9562C12.2763 17.3373 13.2956 17.3887 14.2448 17.1018C15.1939 16.8148 16.014 16.2071 16.5649 15.3827C17.1158 14.5582 17.3634 13.5681 17.2654 12.5814C17.1674 11.5946 16.7299 10.6725 16.0275 9.97258C15.5798 9.52514 15.0384 9.18253 14.4424 8.96942C13.8464 8.75631 13.2105 8.678 12.5806 8.74013C11.9507 8.80226 11.3424 9.00329 10.7995 9.32873C10.2565 9.65418 9.79255 10.0959 9.44087 10.6222C9.08919 11.1485 8.85857 11.7463 8.76562 12.3724C8.67267 12.9985 8.7197 13.6374 8.90332 14.2432C9.08694 14.8489 9.40258 15.4065 9.82753 15.8756C10.2525 16.3447 10.7761 16.7138 11.3609 16.9562ZM8.33569 8.33575C8.94821 7.72322 9.67539 7.23733 10.4757 6.90584C11.276 6.57434 12.1338 6.40372 13 6.40372C13.8663 6.40372 14.724 6.57434 15.5243 6.90584C16.3246 7.23733 17.0518 7.72322 17.6644 8.33575C18.2769 8.94828 18.7628 9.67545 19.0943 10.4758C19.4258 11.2761 19.5964 12.1338 19.5964 13.0001C19.5964 13.8663 19.4258 14.7241 19.0943 15.5244C18.7628 16.3247 18.2769 17.0519 17.6644 17.6644C16.4273 18.9015 14.7495 19.5964 13 19.5964C11.2506 19.5964 9.57274 18.9015 8.33569 17.6644C7.09863 16.4274 6.40366 14.7495 6.40366 13.0001C6.40366 11.2506 7.09863 9.5728 8.33569 8.33575ZM21.0594 7.38608C21.2111 7.24289 21.3327 7.07071 21.4167 6.87972C21.5008 6.68873 21.5456 6.48281 21.5487 6.27417C21.5517 6.06552 21.5129 5.85839 21.4344 5.66503C21.356 5.47167 21.2395 5.29601 21.092 5.14846C20.9444 5.00091 20.7688 4.88446 20.5754 4.80602C20.382 4.72757 20.1749 4.68872 19.9663 4.69176C19.7576 4.6948 19.5517 4.73968 19.3607 4.82373C19.1697 4.90778 18.9975 5.02929 18.8544 5.18108C18.5759 5.47628 18.4234 5.86839 18.4293 6.27417C18.4353 6.67994 18.5991 7.06744 18.886 7.3544C19.173 7.64136 19.5605 7.80518 19.9663 7.8111C20.372 7.81701 20.7642 7.66455 21.0594 7.38608Z" fill="#2E2E36"/>
</svg>
