<svg width="24" height="25" viewBox="0 0 24 25" fill="none" xmlns="http://www.w3.org/2000/svg">
<path d="M20.505 10.7916C20.533 7.41756 17.6595 4.32472 14.1 3.89656C14.0231 3.88696 13.9464 3.87529 13.8701 3.86156C13.6912 3.8273 13.5098 3.80779 13.3276 3.80322C12.5973 3.80322 12.4025 4.31656 12.3511 4.62106C12.301 4.91856 12.3488 5.16939 12.4923 5.36422C12.7338 5.69206 13.1596 5.75039 13.5015 5.79706C13.6006 5.81106 13.6951 5.82389 13.7745 5.84139C16.9735 6.55656 18.0503 7.68006 18.5765 10.8522C18.5893 10.9292 18.5951 11.0249 18.6021 11.1264C18.6255 11.5056 18.6721 12.2942 19.5203 12.2942C19.5903 12.2942 19.6673 12.2884 19.7466 12.2767C20.5353 12.1566 20.5108 11.4356 20.4991 11.0891C20.4956 10.9911 20.4921 10.8989 20.5015 10.8371C20.5033 10.8216 20.5041 10.806 20.5038 10.7904L20.505 10.7916Z" fill="#2E2E36"/>
<path d="M13.12 2.65867C13.2156 2.66567 13.3043 2.67267 13.379 2.68317C18.6325 3.49167 21.0486 5.98017 21.7171 11.2745C21.7288 11.3643 21.7311 11.474 21.7323 11.5895C21.7393 12.0037 21.7533 12.8647 22.6773 12.8822H22.7053C22.9958 12.8822 23.2256 12.7947 23.3913 12.622C23.6783 12.3222 23.6596 11.8753 23.6421 11.516C23.6386 11.4273 23.6351 11.3445 23.6351 11.271C23.7028 5.85767 19.0151 0.947167 13.6065 0.765167C13.5831 0.765167 13.5621 0.765167 13.5411 0.768667C13.5199 0.771352 13.4984 0.772522 13.477 0.772167C13.4221 0.772167 13.3568 0.7675 13.2856 0.762833C13.2016 0.757 13.1048 0.75 13.0056 0.75C12.1446 0.75 11.9813 1.3625 11.9603 1.72767C11.9125 2.57117 12.728 2.63067 13.12 2.65867ZM21.464 18.117C21.3513 18.0313 21.2396 17.9442 21.1291 17.8557C20.5551 17.3937 19.945 16.969 19.3558 16.5572L18.9883 16.3005C18.2323 15.7697 17.5533 15.5118 16.9116 15.5118C16.046 15.5118 15.2923 15.9902 14.6693 16.9317C14.394 17.3493 14.0591 17.5523 13.6473 17.5523C13.3613 17.5423 13.0806 17.472 12.8236 17.3458C10.3853 16.2398 8.6423 14.5435 7.64597 12.3047C7.16414 11.222 7.32047 10.515 8.16747 9.93867C8.6493 9.612 9.54414 9.00417 9.4823 7.83867C9.40997 6.51683 6.49214 2.53733 5.26247 2.08583C4.73679 1.89408 4.16057 1.89243 3.6338 2.08117C2.22097 2.556 1.2083 3.39133 0.700803 4.49383C0.210803 5.56017 0.234137 6.812 0.763803 8.114C2.29797 11.8788 4.45397 15.1618 7.17347 17.8708C9.83464 20.5227 13.106 22.6938 16.8953 24.326C17.2371 24.473 17.5953 24.5535 17.8578 24.6118C17.9465 24.6317 18.0235 24.6492 18.0795 24.6643C18.1103 24.6726 18.142 24.6769 18.174 24.6772H18.2043C19.987 24.6772 22.1278 23.0485 22.7846 21.1923C23.361 19.566 22.3086 18.7622 21.464 18.117ZM13.9086 6.96017C13.6041 6.96717 12.9683 6.9835 12.7455 7.62983C12.6405 7.93317 12.6533 8.1945 12.7828 8.41033C12.9718 8.72533 13.3346 8.82333 13.6636 8.877C14.8595 9.06833 15.4743 9.72867 15.5968 10.9572C15.654 11.5288 16.0401 11.929 16.5336 11.929C16.5711 11.9289 16.6085 11.9266 16.6456 11.922C17.2406 11.852 17.5288 11.4145 17.5031 10.6223C17.5125 9.79633 17.0808 8.85833 16.3446 8.11167C15.6073 7.36267 14.7183 6.94033 13.9086 6.96017Z" fill="#2E2E36"/>
</svg>
