<svg width="34" height="37" viewBox="0 0 34 37" fill="none" xmlns="http://www.w3.org/2000/svg">
<path d="M33.3945 10.5697V9.17462C31.6787 9.17722 29.9969 8.69699 28.5412 7.78883C29.8298 9.19878 31.5265 10.1711 33.3945 10.5699V10.5697ZM24.3538 1.59586C24.3101 1.34643 24.2766 1.09533 24.2534 0.843172V0H17.6556V26.1855C17.6451 29.2379 15.1665 31.7097 12.1096 31.7097C11.2431 31.7109 10.3883 31.5084 9.61448 31.1183C10.6279 32.4476 12.2281 33.3055 14.0292 33.3055C17.0858 33.3055 19.5647 30.8341 19.5754 27.7814V1.596H24.3538V1.59586ZM13.7932 15.6662V14.1808C13.2419 14.1055 12.6861 14.0678 12.1296 14.068C5.4331 14.068 0.00482178 19.4934 0.00482178 26.1855C0.00482178 30.3812 2.1382 34.0789 5.38013 36.2539C3.24193 34.0694 1.92455 31.0793 1.92455 27.7812C1.92455 21.1743 7.21475 15.8022 13.7932 15.6663V15.6662Z" fill="#00C4BD"/>
</svg>
