<svg width="23" height="19" viewBox="0 0 23 19" fill="none" xmlns="http://www.w3.org/2000/svg">
<path d="M20.6628 5.71702L19.3142 7.72026C19.9646 9.00133 20.2829 10.4217 20.2409 11.8542C20.1988 13.2867 19.7975 14.6865 19.073 15.9281H3.87754C2.93596 14.3148 2.5458 12.4448 2.7649 10.5953C2.984 8.74572 3.8007 7.01515 5.09393 5.66009C6.38716 4.30503 8.08806 3.39763 9.94449 3.0724C11.8009 2.74718 13.714 3.02144 15.4002 3.85454L17.4285 2.52265C15.3635 1.21482 12.9141 0.62878 10.472 0.858267C8.02994 1.08775 5.73636 2.11951 3.95812 3.7885C2.17988 5.45749 1.01974 7.66728 0.663268 10.0644C0.306794 12.4615 0.774584 14.9075 1.99181 17.011C2.18314 17.3383 2.45786 17.6105 2.78868 17.8004C3.11949 17.9904 3.49489 18.0915 3.87754 18.0938H19.0621C19.4484 18.0953 19.8284 17.996 20.1634 17.8058C20.4984 17.6157 20.7765 17.3415 20.9697 17.011C21.9799 15.2827 22.4868 13.3123 22.4346 11.3174C22.3824 9.32246 21.773 7.3806 20.6737 5.70619L20.6628 5.71702ZM9.92943 13.1236C10.1331 13.325 10.3749 13.4847 10.6411 13.5937C10.9073 13.7027 11.1926 13.7588 11.4808 13.7588C11.7689 13.7588 12.0543 13.7027 12.3204 13.5937C12.5866 13.4847 12.8285 13.325 13.0321 13.1236L19.2375 3.93034L9.92943 10.0592C9.72556 10.2603 9.56383 10.4992 9.45348 10.7621C9.34313 11.025 9.28634 11.3068 9.28634 11.5914C9.28634 11.876 9.34313 12.1578 9.45348 12.4207C9.56383 12.6836 9.72556 12.9225 9.92943 13.1236V13.1236Z" fill="#38BC55"/>
</svg>
